<mxfile host="app.diagrams.net" modified="2024-04-11T06:42:43.528Z" agent="Mozilla/5.0 (Macintosh; Intel Mac OS X 10_15_7) AppleWebKit/537.36 (KHTML, like Gecko) Chrome/123.0.0.0 Safari/537.36" version="24.2.2" etag="Cy8T7_IFUvc7GnYpUrui" type="github">
  <diagram name="第 1 页" id="2yhq1d0_Ch7ZafOSK_xb">
    <mxGraphModel>
      <root>
        <mxCell id="0" />
        <mxCell id="1" parent="0" />
      </root>
    </mxGraphModel>
  </diagram>
</mxfile>
